<svg height="800" width="800" xmlns="http://www.w3.org/2000/svg" viewBox="0 0 473.69 473.69" xml:space="preserve"><circle style="fill:#fff" cx="236.86" cy="236.859" r="236.83"/><path style="fill:#d02027" d="M460.15 157.874a1.6178 1.6178 0 0 0-.075-.206C429.766 72.2 351.795 9.318 258.118.971c36.248 19.872 36.401 451.777 0 471.732 93.849-8.362 171.928-71.46 202.122-157.149.078-.236.146-.46.228-.681 8.53-24.438 13.22-50.683 13.22-78.027-.004-27.705-4.802-54.272-13.538-78.972z"/><path style="fill:#db2727" d="M326.422 157.874c-9.274-74.07-32.056-137.03-68.308-156.902-6.735-.591-13.549-.92-20.429-.95-.284 0-.561-.022-.849-.022C133.806 0 46.191 65.802 13.608 157.669a3.348 3.348 0 0 1-.075.206C4.798 182.574 0 209.141 0 236.843c0 27.348 4.697 53.588 13.219 78.027.079.221.153.445.228.681C45.9 407.646 133.642 473.68 236.836 473.68c.284 0 .561-.015.849-.022 6.881-.022 13.694-.352 20.429-.957 36.401-19.954 59.228-83.359 68.423-157.83 6.261-50.661 6.22-106.404-.115-156.997z"/><path style="fill:#f3f4f5" d="M111.272 127.271c0-32.108 26.031-58.14 58.147-58.14 10.804 0 20.912 2.951 29.58 8.085-12.715-12.561-30.186-20.328-49.475-20.328-38.873 0-70.379 31.51-70.379 70.379s31.51 70.379 70.379 70.379c19.289 0 36.76-7.771 49.475-20.336-8.668 5.134-18.777 8.092-29.58 8.092-32.116.006-58.147-26.024-58.147-58.131zM235.722 89.244l14.461 23.564 26.88-6.477-17.939 21.042 14.461 23.552-25.541-10.553-17.946 21.036 2.142-27.565-25.541-10.553 26.876-6.473z"/></svg>