<svg height="800" width="800" xmlns="http://www.w3.org/2000/svg" viewBox="0 0 473.677 473.677" xml:space="preserve"><path style="fill:#3daae0" d="M324.756 236.842h148.921C473.677 106.032 367.641 0 236.835 0c65.401 0 87.925 118.425 87.921 236.842z"/><path style="fill:#44c1ef" d="M0 236.842h334.935C334.939 118.425 302.236 0 236.835 0 106.036 0 0 106.032 0 236.842z"/><path style="fill:#e8bd1f" d="M319.771 236.842c0 118.417-17.531 236.835-82.936 236.835 130.807 0 236.842-106.036 236.842-236.835H319.771z"/><path style="fill:#fdce0c" d="M334.935 236.842H0c0 130.799 106.036 236.835 236.835 236.835 65.401 0 98.1-118.417 98.1-236.835z"/></svg>