<svg width="20" height="20" fill="none" xmlns="http://www.w3.org/2000/svg"><path d="M10 20c5.523 0 10-4.477 10-10S15.523 0 10 0 0 4.477 0 10s4.477 10 10 10Z" fill="#59AF99"/><path d="M11.038 8.769V7.588h2.687V5.725H6.268v1.863h2.694v1.181c-2.257.109-3.951.562-3.951 1.1s1.692.993 3.951 1.1v3.9h2.076v-3.9c2.257-.108 3.951-.561 3.951-1.1s-1.689-.991-3.951-1.1ZM10 10.625c-2.444 0-4.425-.378-4.425-.833 0-.391 1.443-.72 3.385-.808v1.334a23.139 23.139 0 0 0 2.076 0V8.984c1.942.088 3.385.417 3.385.808.004.46-1.977.833-4.421.833Z" fill="#fff"/></svg>